<!DOCTYPE svg PUBLIC "-//W3C//DTD SVG 1.1//EN" "http://www.w3.org/Graphics/SVG/1.1/DTD/svg11.dtd">
<!-- Uploaded to: SVG Repo, www.svgrepo.com, Transformed by: SVG Repo Mixer Tools -->
<svg version="1.1" id="Layer_1" xmlns="http://www.w3.org/2000/svg" xmlns:xlink="http://www.w3.org/1999/xlink" viewBox="-102.4 -102.4 716.80 716.80" xml:space="preserve" width="256px" height="256px" fill="#000000">
<g id="SVGRepo_bgCarrier" stroke-width="0"/>
<g id="SVGRepo_iconCarrier"> <path style="fill:#6FB0B6;" d="M126.592,408.772C61.713,401.596,12.8,346.914,12.8,281.6c0-67.311,52.224-122.65,118.281-127.633 C142.925,94.652,194.782,51.2,256,51.2s113.075,43.452,124.919,102.767C446.976,158.95,499.2,214.289,499.2,281.6 c0,65.314-48.913,119.996-113.792,127.172H126.592z"/> <rect x="140.8" y="256" style="fill:#C5DFE2;" width="230.4" height="153.6"/> <g> <path style="fill:#573A32;" d="M396.8,448H115.2c-7.074,0-12.8,5.726-12.8,12.8s5.726,12.8,12.8,12.8h281.6 c7.074,0,12.8-5.726,12.8-12.8S403.874,448,396.8,448z"/> <path style="fill:#573A32;" d="M391.305,142.234C374.98,81.749,320.162,38.4,256,38.4S137.028,81.749,120.695,142.234 C52.54,152.013,0,210.782,0,281.6c0,77.636,63.164,140.8,140.8,140.8h230.4c77.636,0,140.8-63.164,140.8-140.8 C512,210.782,459.46,152.013,391.305,142.234z M358.4,396.8c-56.986,0-147.814,0-204.8,0v-128h204.8V396.8z M384,396.049V268.8 c0-14.14-11.46-25.6-25.6-25.6H153.6c-14.14,0-25.6,11.46-25.6,25.6v127.249C70.409,389.675,25.6,340.89,25.6,281.6 c0-63.625,51.575-115.2,115.2-115.2c0.435,0,0.845,0.119,1.28,0.128C148.463,108.945,196.719,64,256,64 s107.537,44.945,113.92,102.528c0.435-0.009,0.845-0.128,1.28-0.128c63.625,0,115.2,51.575,115.2,115.2 C486.4,340.89,441.591,389.675,384,396.049z"/> </g> </g>
</svg>